# xmcd CD database file
#
# Track frame offsets:
#	150
#	29726
#	64551
#	99953
#	129268
#	170105
#	203543
#	228363
#	242910
#	269454
#	311106
#
# Disc length: 4703 seconds
#
# Revision: 0
# Processed by: cddbd v1.5.2PL0 Copyright (c) Steve Scherf et al.
# Submitted via: CDex 1.70beta2
#
DISCID=96125d0b
DTITLE=Paul Desmond - Complete Oberlin and College of the Pacific Concerts CD1
DYEAR=1953
DGENRE=Jazz
TTITLE0=These Foolish Things
TTITLE1=The Way You Look Tonight
TTITLE2=Perdido
TTITLE3=Stardust
TTITLE4=How High The Moon
TTITLE5=Lullaby In Rhythm
TTITLE6=I'll Never Smile Again
TTITLE7=Laura
TTITLE8=For All We Know
TTITLE9=All The Things You Are
TTITLE10=I Remember You
EXTD=YEAR: 1953
EXTT0=
EXTT1=
EXTT2=
EXTT3=
EXTT4=
EXTT5=
EXTT6=
EXTT7=
EXTT8=
EXTT9=
EXTT10=
PLAYORDER=
